<mxfile host="app.diagrams.net" agent="Mozilla/5.0 (Windows NT 10.0; Win64; x64; rv:139.0) Gecko/20100101 Firefox/139.0" version="28.2.3">
  <diagram name="Страница — 1" id="VJM2AuPIefYYTYtJUDaH">
    <mxGraphModel dx="1392" dy="747" grid="1" gridSize="10" guides="1" tooltips="1" connect="1" arrows="1" fold="1" page="1" pageScale="1" pageWidth="827" pageHeight="1169" math="0" shadow="0">
      <root>
        <mxCell id="0" />
        <mxCell id="1" parent="0" />
        <UserObject label="" plantUmlData="{&#xa;  &quot;data&quot;: &quot;@startuml\ntitle Основной экран приложения (схема)\n\nskinparam defaultFontName Arial\nskinparam defaultFontSize 14\nskinparam rectangle {\n  BorderColor Black\n  BackgroundColor White\n  RoundCorner 10\n  Padding 4\n  MinimumWidth 140\n  MaximumWidth 140\n}\n\nleft to right direction\n\npackage \&quot;Панель ввода параметров\&quot; {\n    rectangle \&quot;Поле ввода функции\&quot;\n    rectangle \&quot;Поля интервала [a, b]\&quot;\n    rectangle \&quot;Параметры точности и стартовые значения\&quot;\n    rectangle \&quot;Выбор метода / Автовыбор\&quot;\n    rectangle \&quot;Кнопка запуска\&quot;\n}\n\npackage \&quot;Область результатов\&quot; {\n    rectangle \&quot;Численные результаты\&quot;\n    rectangle \&quot;Таблица итераций\&quot;\n    rectangle \&quot;График функции и истории\&quot;\n}\n@enduml\n&quot;,&#xa;  &quot;format&quot;: &quot;svg&quot;&#xa;}" id="uAlbVnMMJaa76xt25_W9-17">
          <mxCell style="shape=image;noLabel=1;verticalAlign=top;aspect=fixed;imageAspect=0;image=data:image/svg+xml,PHN2ZyB4bWxucz0iaHR0cDovL3d3dy53My5vcmcvMjAwMC9zdmciIHhtbG5zOnhsaW5rPSJodHRwOi8vd3d3LnczLm9yZy8xOTk5L3hsaW5rIiBjb250ZW50U3R5bGVUeXBlPSJ0ZXh0L2NzcyIgZGF0YS1kaWFncmFtLXR5cGU9IkRFU0NSSVBUSU9OIiBoZWlnaHQ9IjQ1MnB4IiBwcmVzZXJ2ZUFzcGVjdFJhdGlvPSJub25lIiBzdHlsZT0id2lkdGg6NTg2cHg7aGVpZ2h0OjQ1MnB4O2JhY2tncm91bmQ6I0ZGRkZGRjsiIHZlcnNpb249IjEuMSIgdmlld0JveD0iMCAwIDU4NiA0NTIiIHdpZHRoPSI1ODZweCIgem9vbUFuZFBhbj0ibWFnbmlmeSI+PHRpdGxlPiYjMTA1NDsmIzEwODk7JiMxMDg1OyYjMTA4NjsmIzEwNzQ7JiMxMDg1OyYjMTA4NjsmIzEwODE7ICYjMTEwMTsmIzEwODI7JiMxMDg4OyYjMTA3MjsmIzEwODU7ICYjMTA4NzsmIzEwODg7JiMxMDgwOyYjMTA4MzsmIzEwODY7JiMxMDc4OyYjMTA3NzsmIzEwODU7JiMxMDgwOyYjMTEwMzsgKCYjMTA4OTsmIzEwOTM7JiMxMDc3OyYjMTA4NDsmIzEwNzI7KTwvdGl0bGU+PGRlZnMvPjxnPjx0ZXh0IGZpbGw9IiMwMDAwMDAiIGZvbnQtZmFtaWx5PSJBcmlhbCIgZm9udC1zaXplPSIxNCIgZm9udC13ZWlnaHQ9ImJvbGQiIGxlbmd0aEFkanVzdD0ic3BhY2luZyIgdGV4dExlbmd0aD0iMjMxIiB4PSIxNzAuNSIgeT0iMjMuMjM0NCI+JiMxMDU0OyYjMTA4OTsmIzEwODU7JiMxMDg2OyYjMTA3NDsmIzEwODU7JiMxMDg2OyYjMTA4MTsgJiMxMTAxOyYjMTA4MjsmIzEwODg7JiMxMDcyOyYjMTA4NTsgJiMxMDg3OyYjMTA4ODsmIzEwODA7JiMxMDgzOyYjMTA4NjsmIzEwNzg7JiMxMDc3OyYjMTA4NTsmIzEwODA7JiMxMTAzOyAoJiMxMDg5OyYjMTA5MzsmIzEwNzc7JiMxMDg0OyYjMTA3MjspPC90ZXh0PjwhLS1jbHVzdGVyID8/Pz8/PyA/Pz8/PyA/Pz8/Pz8/Pz8/LS0+PGcgY2xhc3M9ImNsdXN0ZXIiIGRhdGEtZW50aXR5PSImIzEwNTU7JiMxMDcyOyYjMTA4NTsmIzEwNzc7JiMxMDgzOyYjMTEwMDsgJiMxMDc0OyYjMTA3NDsmIzEwODY7JiMxMDc2OyYjMTA3MjsgJiMxMDg3OyYjMTA3MjsmIzEwODg7JiMxMDcyOyYjMTA4NDsmIzEwNzc7JiMxMDkwOyYjMTA4ODsmIzEwODY7JiMxMDc0OyIgZGF0YS1zb3VyY2UtbGluZT0iMTYiIGRhdGEtdWlkPSJlbnQwMDAyIiBpZD0iY2x1c3Rlcl8mIzEwNTU7JiMxMDcyOyYjMTA4NTsmIzEwNzc7JiMxMDgzOyYjMTEwMDsgJiMxMDc0OyYjMTA3NDsmIzEwODY7JiMxMDc2OyYjMTA3MjsgJiMxMDg3OyYjMTA3MjsmIzEwODg7JiMxMDcyOyYjMTA4NDsmIzEwNzc7JiMxMDkwOyYjMTA4ODsmIzEwODY7JiMxMDc0OyI+PHBhdGggZD0iTTguNSwyMjAuOTg0NCBMMTcwLjUsMjIwLjk4NDQgQTMuNzUsMy43NSAwIDAgMSAxNzMsMjIzLjQ4NDQgTDE4MCwyNDEuOTY4OCBMNTc2LjUsMjQxLjk2ODggQTIuNSwyLjUgMCAwIDEgNTc5LDI0NC40Njg4IEw1NzksNDQzLjQ4NDQgQTIuNSwyLjUgMCAwIDEgNTc2LjUsNDQ1Ljk4NDQgTDguNSw0NDUuOTg0NCBBMi41LDIuNSAwIDAgMSA2LDQ0My40ODQ0IEw2LDIyMy40ODQ0IEEyLjUsMi41IDAgMCAxIDguNSwyMjAuOTg0NCIgZmlsbD0ibm9uZSIgc3R5bGU9InN0cm9rZTojMDAwMDAwO3N0cm9rZS13aWR0aDoxLjU7Ii8+PGxpbmUgc3R5bGU9InN0cm9rZTojMDAwMDAwO3N0cm9rZS13aWR0aDoxLjU7IiB4MT0iNiIgeDI9IjE4MCIgeTE9IjI0MS45Njg4IiB5Mj0iMjQxLjk2ODgiLz48dGV4dCBmaWxsPSIjMDAwMDAwIiBmb250LWZhbWlseT0iQXJpYWwiIGZvbnQtc2l6ZT0iMTQiIGZvbnQtd2VpZ2h0PSJib2xkIiBsZW5ndGhBZGp1c3Q9InNwYWNpbmciIHRleHRMZW5ndGg9IjE2MSIgeD0iMTAiIHk9IjIzNi4yMTg4Ij4mIzEwNTU7JiMxMDcyOyYjMTA4NTsmIzEwNzc7JiMxMDgzOyYjMTEwMDsgJiMxMDc0OyYjMTA3NDsmIzEwODY7JiMxMDc2OyYjMTA3MjsgJiMxMDg3OyYjMTA3MjsmIzEwODg7JiMxMDcyOyYjMTA4NDsmIzEwNzc7JiMxMDkwOyYjMTA4ODsmIzEwODY7JiMxMDc0OzwvdGV4dD48L2c+PCEtLWNsdXN0ZXIgPz8/Pz8/PyA/Pz8/Pz8/Pz8/Py0tPjxnIGNsYXNzPSJjbHVzdGVyIiBkYXRhLWVudGl0eT0iJiMxMDU0OyYjMTA3MzsmIzEwODM7JiMxMDcyOyYjMTA4OTsmIzEwOTA7JiMxMTAwOyAmIzEwODg7JiMxMDc3OyYjMTA3OTsmIzEwOTE7JiMxMDgzOyYjMTEwMDsmIzEwOTA7JiMxMDcyOyYjMTA5MDsmIzEwODY7JiMxMDc0OyIgZGF0YS1zb3VyY2UtbGluZT0iMjQiIGRhdGEtdWlkPSJlbnQwMDA4IiBpZD0iY2x1c3Rlcl8mIzEwNTQ7JiMxMDczOyYjMTA4MzsmIzEwNzI7JiMxMDg5OyYjMTA5MDsmIzExMDA7ICYjMTA4ODsmIzEwNzc7JiMxMDc5OyYjMTA5MTsmIzEwODM7JiMxMTAwOyYjMTA5MDsmIzEwNzI7JiMxMDkwOyYjMTA4NjsmIzEwNzQ7Ij48cGF0aCBkPSJNNzUsNDEuOTg0NCBMMjA5LDQxLjk4NDQgQTMuNzUsMy43NSAwIDAgMSAyMTEuNSw0NC40ODQ0IEwyMTguNSw2Mi45Njg4IEw1NzYuNSw2Mi45Njg4IEEyLjUsMi41IDAgMCAxIDU3OSw2NS40Njg4IEw1NzksMTk0LjQ4NDQgQTIuNSwyLjUgMCAwIDEgNTc2LjUsMTk2Ljk4NDQgTDc1LDE5Ni45ODQ0IEEyLjUsMi41IDAgMCAxIDcyLjUsMTk0LjQ4NDQgTDcyLjUsNDQuNDg0NCBBMi41LDIuNSAwIDAgMSA3NSw0MS45ODQ0IiBmaWxsPSJub25lIiBzdHlsZT0ic3Ryb2tlOiMwMDAwMDA7c3Ryb2tlLXdpZHRoOjEuNTsiLz48bGluZSBzdHlsZT0ic3Ryb2tlOiMwMDAwMDA7c3Ryb2tlLXdpZHRoOjEuNTsiIHgxPSI3Mi41IiB4Mj0iMjE4LjUiIHkxPSI2Mi45Njg4IiB5Mj0iNjIuOTY4OCIvPjx0ZXh0IGZpbGw9IiMwMDAwMDAiIGZvbnQtZmFtaWx5PSJBcmlhbCIgZm9udC1zaXplPSIxNCIgZm9udC13ZWlnaHQ9ImJvbGQiIGxlbmd0aEFkanVzdD0ic3BhY2luZyIgdGV4dExlbmd0aD0iMTMzIiB4PSI3Ni41IiB5PSI1Ny4yMTg4Ij4mIzEwNTQ7JiMxMDczOyYjMTA4MzsmIzEwNzI7JiMxMDg5OyYjMTA5MDsmIzExMDA7ICYjMTA4ODsmIzEwNzc7JiMxMDc5OyYjMTA5MTsmIzEwODM7JiMxMTAwOyYjMTA5MDsmIzEwNzI7JiMxMDkwOyYjMTA4NjsmIzEwNzQ7PC90ZXh0PjwvZz48IS0tZW50aXR5ID8/Pz8gPz8/Pz8gPz8/Pz8/Py0tPjxnIGNsYXNzPSJlbnRpdHkiIGRhdGEtZW50aXR5PSImIzEwNTU7JiMxMDg2OyYjMTA4MzsmIzEwNzc7ICYjMTA3NDsmIzEwNzQ7JiMxMDg2OyYjMTA3NjsmIzEwNzI7ICYjMTA5MjsmIzEwOTE7JiMxMDg1OyYjMTA4MjsmIzEwOTQ7JiMxMDgwOyYjMTA4MDsiIGRhdGEtc291cmNlLWxpbmU9IjE3IiBkYXRhLXVpZD0iZW50MDAwMyIgaWQ9ImVudGl0eV8mIzEwNTU7JiMxMDg2OyYjMTA4MzsmIzEwNzc7ICYjMTA3NDsmIzEwNzQ7JiMxMDg2OyYjMTA3NjsmIzEwNzI7ICYjMTA5MjsmIzEwOTE7JiMxMDg1OyYjMTA4MjsmIzEwOTQ7JiMxMDgwOyYjMTA4MDsiPjxyZWN0IGZpbGw9IiNGRkZGRkYiIGhlaWdodD0iMzQuOTg0NCIgcng9IjUiIHJ5PSI1IiBzdHlsZT0ic3Ryb2tlOiMwMDAwMDA7c3Ryb2tlLXdpZHRoOjAuNTsiIHdpZHRoPSIxNDYiIHg9Ijk1LjUiIHk9IjM5NC40ODQ0Ii8+PHRleHQgZmlsbD0iIzAwMDAwMCIgZm9udC1mYW1pbHk9IkFyaWFsIiBmb250LXNpemU9IjE0IiBsZW5ndGhBZGp1c3Q9InNwYWNpbmciIHRleHRMZW5ndGg9IjEyNiIgeD0iMTA1LjUiIHk9IjQxNy43MTg4Ij4mIzEwNTU7JiMxMDg2OyYjMTA4MzsmIzEwNzc7ICYjMTA3NDsmIzEwNzQ7JiMxMDg2OyYjMTA3NjsmIzEwNzI7ICYjMTA5MjsmIzEwOTE7JiMxMDg1OyYjMTA4MjsmIzEwOTQ7JiMxMDgwOyYjMTA4MDs8L3RleHQ+PC9nPjwhLS1lbnRpdHkgPz8/PyA/Pz8/Pz8/Pz8gW2EsIGJdLS0+PGcgY2xhc3M9ImVudGl0eSIgZGF0YS1lbnRpdHk9IiYjMTA1NTsmIzEwODY7JiMxMDgzOyYjMTEwMzsgJiMxMDgwOyYjMTA4NTsmIzEwOTA7JiMxMDc3OyYjMTA4ODsmIzEwNzQ7JiMxMDcyOyYjMTA4MzsmIzEwNzI7IFthLCBiXSIgZGF0YS1zb3VyY2UtbGluZT0iMTgiIGRhdGEtdWlkPSJlbnQwMDA0IiBpZD0iZW50aXR5XyYjMTA1NTsmIzEwODY7JiMxMDgzOyYjMTEwMzsgJiMxMDgwOyYjMTA4NTsmIzEwOTA7JiMxMDc3OyYjMTA4ODsmIzEwNzQ7JiMxMDcyOyYjMTA4MzsmIzEwNzI7IFthLCBiXSI+PHJlY3QgZmlsbD0iI0ZGRkZGRiIgaGVpZ2h0PSIzNC45ODQ0IiByeD0iNSIgcnk9IjUiIHN0eWxlPSJzdHJva2U6IzAwMDAwMDtzdHJva2Utd2lkdGg6MC41OyIgd2lkdGg9IjE2NyIgeD0iODUiIHk9IjMyNC40ODQ0Ii8+PHRleHQgZmlsbD0iIzAwMDAwMCIgZm9udC1mYW1pbHk9IkFyaWFsIiBmb250LXNpemU9IjE0IiBsZW5ndGhBZGp1c3Q9InNwYWNpbmciIHRleHRMZW5ndGg9IjE0NyIgeD0iOTUiIHk9IjM0Ny43MTg4Ij4mIzEwNTU7JiMxMDg2OyYjMTA4MzsmIzExMDM7ICYjMTA4MDsmIzEwODU7JiMxMDkwOyYjMTA3NzsmIzEwODg7JiMxMDc0OyYjMTA3MjsmIzEwODM7JiMxMDcyOyBbYSwgYl08L3RleHQ+PC9nPjwhLS1lbnRpdHkgPz8/Pz8/Pz8/ID8/Pz8/Pz8/ID8gPz8/Pz8/Pz8/ID8/Pz8/Pz8/LS0+PGcgY2xhc3M9ImVudGl0eSIgZGF0YS1lbnRpdHk9IiYjMTA1NTsmIzEwNzI7JiMxMDg4OyYjMTA3MjsmIzEwODQ7JiMxMDc3OyYjMTA5MDsmIzEwODg7JiMxMDk5OyAmIzEwOTA7JiMxMDg2OyYjMTA5NTsmIzEwODU7JiMxMDg2OyYjMTA4OTsmIzEwOTA7JiMxMDgwOyAmIzEwODA7ICYjMTA4OTsmIzEwOTA7JiMxMDcyOyYjMTA4ODsmIzEwOTA7JiMxMDg2OyYjMTA3NDsmIzEwOTk7JiMxMDc3OyAmIzEwNzk7JiMxMDg1OyYjMTA3MjsmIzEwOTU7JiMxMDc3OyYjMTA4NTsmIzEwODA7JiMxMTAzOyIgZGF0YS1zb3VyY2UtbGluZT0iMTkiIGRhdGEtdWlkPSJlbnQwMDA1IiBpZD0iZW50aXR5XyYjMTA1NTsmIzEwNzI7JiMxMDg4OyYjMTA3MjsmIzEwODQ7JiMxMDc3OyYjMTA5MDsmIzEwODg7JiMxMDk5OyAmIzEwOTA7JiMxMDg2OyYjMTA5NTsmIzEwODU7JiMxMDg2OyYjMTA4OTsmIzEwOTA7JiMxMDgwOyAmIzEwODA7ICYjMTA4OTsmIzEwOTA7JiMxMDcyOyYjMTA4ODsmIzEwOTA7JiMxMDg2OyYjMTA3NDsmIzEwOTk7JiMxMDc3OyAmIzEwNzk7JiMxMDg1OyYjMTA3MjsmIzEwOTU7JiMxMDc3OyYjMTA4NTsmIzEwODA7JiMxMTAzOyI+PHJlY3QgZmlsbD0iI0ZGRkZGRiIgaGVpZ2h0PSIzNC45ODQ0IiByeD0iNSIgcnk9IjUiIHN0eWxlPSJzdHJva2U6IzAwMDAwMDtzdHJva2Utd2lkdGg6MC41OyIgd2lkdGg9IjI5MyIgeD0iMjIiIHk9IjI1NC40ODQ0Ii8+PHRleHQgZmlsbD0iIzAwMDAwMCIgZm9udC1mYW1pbHk9IkFyaWFsIiBmb250LXNpemU9IjE0IiBsZW5ndGhBZGp1c3Q9InNwYWNpbmciIHRleHRMZW5ndGg9IjI3MyIgeD0iMzIiIHk9IjI3Ny43MTg4Ij4mIzEwNTU7JiMxMDcyOyYjMTA4ODsmIzEwNzI7JiMxMDg0OyYjMTA3NzsmIzEwOTA7JiMxMDg4OyYjMTA5OTsgJiMxMDkwOyYjMTA4NjsmIzEwOTU7JiMxMDg1OyYjMTA4NjsmIzEwODk7JiMxMDkwOyYjMTA4MDsgJiMxMDgwOyAmIzEwODk7JiMxMDkwOyYjMTA3MjsmIzEwODg7JiMxMDkwOyYjMTA4NjsmIzEwNzQ7JiMxMDk5OyYjMTA3NzsgJiMxMDc5OyYjMTA4NTsmIzEwNzI7JiMxMDk1OyYjMTA3NzsmIzEwODU7JiMxMDgwOyYjMTEwMzs8L3RleHQ+PC9nPjwhLS1lbnRpdHkgPz8/Pz8gPz8/Pz8/IC8gPz8/Pz8/Pz8/LS0+PGcgY2xhc3M9ImVudGl0eSIgZGF0YS1lbnRpdHk9IiYjMTA0MjsmIzEwOTk7JiMxMDczOyYjMTA4NjsmIzEwODg7ICYjMTA4NDsmIzEwNzc7JiMxMDkwOyYjMTA4NjsmIzEwNzY7JiMxMDcyOyAvICYjMTA0MDsmIzEwNzQ7JiMxMDkwOyYjMTA4NjsmIzEwNzQ7JiMxMDk5OyYjMTA3MzsmIzEwODY7JiMxMDg4OyIgZGF0YS1zb3VyY2UtbGluZT0iMjAiIGRhdGEtdWlkPSJlbnQwMDA2IiBpZD0iZW50aXR5XyYjMTA0MjsmIzEwOTk7JiMxMDczOyYjMTA4NjsmIzEwODg7ICYjMTA4NDsmIzEwNzc7JiMxMDkwOyYjMTA4NjsmIzEwNzY7JiMxMDcyOyAvICYjMTA0MDsmIzEwNzQ7JiMxMDkwOyYjMTA4NjsmIzEwNzQ7JiMxMDk5OyYjMTA3MzsmIzEwODY7JiMxMDg4OyI+PHJlY3QgZmlsbD0iI0ZGRkZGRiIgaGVpZ2h0PSIzNC45ODQ0IiByeD0iNSIgcnk9IjUiIHN0eWxlPSJzdHJva2U6IzAwMDAwMDtzdHJva2Utd2lkdGg6MC41OyIgd2lkdGg9IjE4OCIgeD0iMzc1IiB5PSIzOTQuNDg0NCIvPjx0ZXh0IGZpbGw9IiMwMDAwMDAiIGZvbnQtZmFtaWx5PSJBcmlhbCIgZm9udC1zaXplPSIxNCIgbGVuZ3RoQWRqdXN0PSJzcGFjaW5nIiB0ZXh0TGVuZ3RoPSIxNjgiIHg9IjM4NSIgeT0iNDE3LjcxODgiPiYjMTA0MjsmIzEwOTk7JiMxMDczOyYjMTA4NjsmIzEwODg7ICYjMTA4NDsmIzEwNzc7JiMxMDkwOyYjMTA4NjsmIzEwNzY7JiMxMDcyOyAvICYjMTA0MDsmIzEwNzQ7JiMxMDkwOyYjMTA4NjsmIzEwNzQ7JiMxMDk5OyYjMTA3MzsmIzEwODY7JiMxMDg4OzwvdGV4dD48L2c+PCEtLWVudGl0eSA/Pz8/Pz8gPz8/Pz8/Py0tPjxnIGNsYXNzPSJlbnRpdHkiIGRhdGEtZW50aXR5PSImIzEwNTA7JiMxMDg1OyYjMTA4NjsmIzEwODc7JiMxMDgyOyYjMTA3MjsgJiMxMDc5OyYjMTA3MjsmIzEwODc7JiMxMDkxOyYjMTA4OTsmIzEwODI7JiMxMDcyOyIgZGF0YS1zb3VyY2UtbGluZT0iMjEiIGRhdGEtdWlkPSJlbnQwMDA3IiBpZD0iZW50aXR5XyYjMTA1MDsmIzEwODU7JiMxMDg2OyYjMTA4NzsmIzEwODI7JiMxMDcyOyAmIzEwNzk7JiMxMDcyOyYjMTA4NzsmIzEwOTE7JiMxMDg5OyYjMTA4MjsmIzEwNzI7Ij48cmVjdCBmaWxsPSIjRkZGRkZGIiBoZWlnaHQ9IjM0Ljk4NDQiIHJ4PSI1IiByeT0iNSIgc3R5bGU9InN0cm9rZTojMDAwMDAwO3N0cm9rZS13aWR0aDowLjU7IiB3aWR0aD0iMTE4IiB4PSI0MTAiIHk9IjMyNC40ODQ0Ii8+PHRleHQgZmlsbD0iIzAwMDAwMCIgZm9udC1mYW1pbHk9IkFyaWFsIiBmb250LXNpemU9IjE0IiBsZW5ndGhBZGp1c3Q9InNwYWNpbmciIHRleHRMZW5ndGg9Ijk4IiB4PSI0MjAiIHk9IjM0Ny43MTg4Ij4mIzEwNTA7JiMxMDg1OyYjMTA4NjsmIzEwODc7JiMxMDgyOyYjMTA3MjsgJiMxMDc5OyYjMTA3MjsmIzEwODc7JiMxMDkxOyYjMTA4OTsmIzEwODI7JiMxMDcyOzwvdGV4dD48L2c+PCEtLWVudGl0eSA/Pz8/Pz8/Pz8gPz8/Pz8/Pz8/Py0tPjxnIGNsYXNzPSJlbnRpdHkiIGRhdGEtZW50aXR5PSImIzEwNjM7JiMxMDgwOyYjMTA4OTsmIzEwODM7JiMxMDc3OyYjMTA4NTsmIzEwODU7JiMxMDk5OyYjMTA3NzsgJiMxMDg4OyYjMTA3NzsmIzEwNzk7JiMxMDkxOyYjMTA4MzsmIzExMDA7JiMxMDkwOyYjMTA3MjsmIzEwOTA7JiMxMDk5OyIgZGF0YS1zb3VyY2UtbGluZT0iMjUiIGRhdGEtdWlkPSJlbnQwMDA5IiBpZD0iZW50aXR5XyYjMTA2MzsmIzEwODA7JiMxMDg5OyYjMTA4MzsmIzEwNzc7JiMxMDg1OyYjMTA4NTsmIzEwOTk7JiMxMDc3OyAmIzEwODg7JiMxMDc3OyYjMTA3OTsmIzEwOTE7JiMxMDgzOyYjMTEwMDsmIzEwOTA7JiMxMDcyOyYjMTA5MDsmIzEwOTk7Ij48cmVjdCBmaWxsPSIjRkZGRkZGIiBoZWlnaHQ9IjM0Ljk4NDQiIHJ4PSI1IiByeT0iNSIgc3R5bGU9InN0cm9rZTojMDAwMDAwO3N0cm9rZS13aWR0aDowLjU7IiB3aWR0aD0iMTYwIiB4PSI4OC41IiB5PSIxNDUuNDg0NCIvPjx0ZXh0IGZpbGw9IiMwMDAwMDAiIGZvbnQtZmFtaWx5PSJBcmlhbCIgZm9udC1zaXplPSIxNCIgbGVuZ3RoQWRqdXN0PSJzcGFjaW5nIiB0ZXh0TGVuZ3RoPSIxNDAiIHg9Ijk4LjUiIHk9IjE2OC43MTg4Ij4mIzEwNjM7JiMxMDgwOyYjMTA4OTsmIzEwODM7JiMxMDc3OyYjMTA4NTsmIzEwODU7JiMxMDk5OyYjMTA3NzsgJiMxMDg4OyYjMTA3NzsmIzEwNzk7JiMxMDkxOyYjMTA4MzsmIzExMDA7JiMxMDkwOyYjMTA3MjsmIzEwOTA7JiMxMDk5OzwvdGV4dD48L2c+PCEtLWVudGl0eSA/Pz8/Pz8/ID8/Pz8/Pz8/LS0+PGcgY2xhc3M9ImVudGl0eSIgZGF0YS1lbnRpdHk9IiYjMTA1ODsmIzEwNzI7JiMxMDczOyYjMTA4MzsmIzEwODA7JiMxMDk0OyYjMTA3MjsgJiMxMDgwOyYjMTA5MDsmIzEwNzc7JiMxMDg4OyYjMTA3MjsmIzEwOTQ7JiMxMDgwOyYjMTA4MTsiIGRhdGEtc291cmNlLWxpbmU9IjI2IiBkYXRhLXVpZD0iZW50MDAxMCIgaWQ9ImVudGl0eV8mIzEwNTg7JiMxMDcyOyYjMTA3MzsmIzEwODM7JiMxMDgwOyYjMTA5NDsmIzEwNzI7ICYjMTA4MDsmIzEwOTA7JiMxMDc3OyYjMTA4ODsmIzEwNzI7JiMxMDk0OyYjMTA4MDsmIzEwODE7Ij48cmVjdCBmaWxsPSIjRkZGRkZGIiBoZWlnaHQ9IjM0Ljk4NDQiIHJ4PSI1IiByeT0iNSIgc3R5bGU9InN0cm9rZTojMDAwMDAwO3N0cm9rZS13aWR0aDowLjU7IiB3aWR0aD0iMTMyIiB4PSIxMDIuNSIgeT0iNzUuNDg0NCIvPjx0ZXh0IGZpbGw9IiMwMDAwMDAiIGZvbnQtZmFtaWx5PSJBcmlhbCIgZm9udC1zaXplPSIxNCIgbGVuZ3RoQWRqdXN0PSJzcGFjaW5nIiB0ZXh0TGVuZ3RoPSIxMTIiIHg9IjExMi41IiB5PSI5OC43MTg4Ij4mIzEwNTg7JiMxMDcyOyYjMTA3MzsmIzEwODM7JiMxMDgwOyYjMTA5NDsmIzEwNzI7ICYjMTA4MDsmIzEwOTA7JiMxMDc3OyYjMTA4ODsmIzEwNzI7JiMxMDk0OyYjMTA4MDsmIzEwODE7PC90ZXh0PjwvZz48IS0tZW50aXR5ID8/Pz8/PyA/Pz8/Pz8/ID8gPz8/Pz8/Py0tPjxnIGNsYXNzPSJlbnRpdHkiIGRhdGEtZW50aXR5PSImIzEwNDM7JiMxMDg4OyYjMTA3MjsmIzEwOTI7JiMxMDgwOyYjMTA4MjsgJiMxMDkyOyYjMTA5MTsmIzEwODU7JiMxMDgyOyYjMTA5NDsmIzEwODA7JiMxMDgwOyAmIzEwODA7ICYjMTA4MDsmIzEwODk7JiMxMDkwOyYjMTA4NjsmIzEwODg7JiMxMDgwOyYjMTA4MDsiIGRhdGEtc291cmNlLWxpbmU9IjI3IiBkYXRhLXVpZD0iZW50MDAxMSIgaWQ9ImVudGl0eV8mIzEwNDM7JiMxMDg4OyYjMTA3MjsmIzEwOTI7JiMxMDgwOyYjMTA4MjsgJiMxMDkyOyYjMTA5MTsmIzEwODU7JiMxMDgyOyYjMTA5NDsmIzEwODA7JiMxMDgwOyAmIzEwODA7ICYjMTA4MDsmIzEwODk7JiMxMDkwOyYjMTA4NjsmIzEwODg7JiMxMDgwOyYjMTA4MDsiPjxyZWN0IGZpbGw9IiNGRkZGRkYiIGhlaWdodD0iMzQuOTg0NCIgcng9IjUiIHJ5PSI1IiBzdHlsZT0ic3Ryb2tlOiMwMDAwMDA7c3Ryb2tlLXdpZHRoOjAuNTsiIHdpZHRoPSIxODgiIHg9IjM3NSIgeT0iMTQ1LjQ4NDQiLz48dGV4dCBmaWxsPSIjMDAwMDAwIiBmb250LWZhbWlseT0iQXJpYWwiIGZvbnQtc2l6ZT0iMTQiIGxlbmd0aEFkanVzdD0ic3BhY2luZyIgdGV4dExlbmd0aD0iMTY4IiB4PSIzODUiIHk9IjE2OC43MTg4Ij4mIzEwNDM7JiMxMDg4OyYjMTA3MjsmIzEwOTI7JiMxMDgwOyYjMTA4MjsgJiMxMDkyOyYjMTA5MTsmIzEwODU7JiMxMDgyOyYjMTA5NDsmIzEwODA7JiMxMDgwOyAmIzEwODA7ICYjMTA4MDsmIzEwODk7JiMxMDkwOyYjMTA4NjsmIzEwODg7JiMxMDgwOyYjMTA4MDs8L3RleHQ+PC9nPjwhLS1TUkM9W1RQRkZJWGpINUNSdHluSTdoNWVlZ0UwQnI4OHhZeEdCNXdNQk0tU3drTUdvOHhTdEs1ZzQ5RnZSZjROSGRHaTVEc3dkZU1kNlE5OU5FRVVELWpzUkk2Q2RYUDNTRU4tIC0gLXZ0VmNKWlpLYXJ5QkhxVXl1Snh1VmtVdjBVRmZDcTVadWNkRTlKeVdGWGw3WTFWb1hjemE4dVN1LWNIWXZUSHpCYlhpZHJiTFBEWWxRVFFnVGxDQ19UTURKTXpqYVFib19GbHBMVERRLWlCSVFqdGRTZUktRmFNNE10YURqUnNKUHhjYlpQSWpUbG1DVm1hRGN6YnlJby1LcFRFOF92azVoQVBqaElzWWkyc1ljRUo5UklFeXZSOUpCRkx0MzZuZy1EMmR6dklOdnc3M2c4ZXJOa0VONHhNOTdMN2lWNWtKOXY1cUp1a0xPY2M2anp1ODlad0dSdUpLRk0xdjFTTjhDSDVXRk44MC1kWTE4d3JDMENqcEVKUjl5MHVNNm9MOHBjNHY0WEVXQllpQk15MVJzSjdxZUx5NndxNUwwaHdlNXhIZnVfQk1md1BhSHdYU0lBZFZoRk9NZlRCZzU0dWVUM2RrMnl6UnNrOGFXQTV5b0xOZkl6R3puQ2dSUGdmcHVUTzhKdzduZkRJZ0FXc051TE5ReWVaSnNtOFdyQ3ZuNWs3bnZoN192Vm9ESEdtZTdTOHBmWGJtNERHMGxIV2tWaV9sN1NtdFY2MFNUNHVKNUpqYkx4THMyc3ktMWpCQjA3TW9aZGQ4a3BhbGJmXzZQOTdJOHgtc0gtNUpxMHgyTnlRUkZKVzNtMDBdLS0+PC9nPjwvc3ZnPg==;" vertex="1" parent="1">
            <mxGeometry x="20" y="480" width="586" height="452" as="geometry" />
          </mxCell>
        </UserObject>
      </root>
    </mxGraphModel>
  </diagram>
</mxfile>
